<?xml version="1.0" encoding="utf-8"?>
<!-- Generator: Adobe Illustrator 16.0.0, SVG Export Plug-In . SVG Version: 6.00 Build 0)  -->
<!DOCTYPE svg PUBLIC "-//W3C//DTD SVG 1.1//EN" "http://www.w3.org/Graphics/SVG/1.1/DTD/svg11.dtd">
<svg version="1.1" id="Ebene_1" xmlns="http://www.w3.org/2000/svg" xmlns:xlink="http://www.w3.org/1999/xlink" x="0px" y="0px"
	 width="288px" height="58px" viewBox="155.14 329.445 288 58" enable-background="new 155.14 329.445 288 58" xml:space="preserve"
	>
<path fill="#22356A" d="M279.338,355.712c-0.289,0.394-1.475,0.353-2.178,0.354c-0.732,0.001-1.071,0.235-1.326,0.911
	c-2.437,6.451-4.895,12.895-7.367,19.332c-1.396,3.635-3.823,5.227-7.612,4.943c-0.612-0.046-1.535-0.064-1.769-0.581
	c-0.286-0.632-0.192-1.917,0.063-2.406c0.249-0.477,1.061-0.414,1.451-0.411c0.7,0.006,1.288,0.041,1.926-0.009
	c0.998-0.078,1.776-0.588,2.227-1.478c0.628-1.24,1.189-2.514,1.846-3.914c-1.628,0.218-2.193-0.736-2.662-1.972
	c-1.672-4.409-3.435-8.785-5.108-13.193c-0.336-0.885-0.729-1.293-1.752-1.22c-0.681,0.048-1.505-0.08-1.611-0.591
	c-0.098-0.469-0.114-1.17-0.021-1.917c0.028-0.222,0.324-0.625,1.093-0.639c2.547-0.047,5.095-0.05,7.643-0.013
	c1.054,0.015,1.194,0.363,1.183,1.933c-0.007,0.901-0.396,1.235-1.271,1.263c-0.499,0.016-1.001-0.008-1.654-0.008
	c1.635,4.348,3.233,8.599,4.924,13.095c1.68-4.464,3.271-8.693,4.929-13.1c-0.889-0.022-1.859-0.033-2.427-0.104
	c-0.511-0.064-0.724-0.554-0.724-1.533c-0.043-1.427,0.352-1.56,2.282-1.561c2.117,0,4.235-0.038,6.351,0.027
	c0.507,0.016,1.419-0.107,1.632,0.575C279.572,354.413,279.53,355.221,279.338,355.712z"/>
<path fill="#22356A" d="M239.374,370.379c0,2.55,0,5.043,0,7.723c1.013,0,2.035-0.014,3.056,0.004
	c1.232,0.021,1.427,0.268,1.415,1.707c-0.011,1.295-0.177,1.487-1.384,1.489c-3.193,0.007-6.387-0.028-9.579,0.02
	c-1.064,0.016-1.372-0.423-1.352-1.413c0.034-1.576,0.119-1.767,1.294-1.802c0.75-0.023,1.501-0.004,2.327-0.004
	c0-7.336,0-14.599,0-22.005c-0.805,0-1.617-0.027-2.428,0.008c-0.808,0.035-1.165-0.272-1.188-1.115
	c-0.057-1.963,0.039-2.094,1.98-2.095c0.969,0,1.938-0.003,2.906,0c2.055,0.006,2.416,0.336,2.606,2.544
	c0.364-0.297,0.647-0.532,0.935-0.763c2.545-2.052,5.451-2.625,8.588-1.939c2.437,0.533,3.892,2.214,4.554,4.54
	c0.889,3.119,0.992,6.304,0.273,9.463c-1.224,5.37-6.926,7.849-11.756,5.151C240.877,371.475,240.198,370.938,239.374,370.379z
	 M239.321,362.69c0,1.184-0.023,2.369,0.017,3.551c0.011,0.322,0.132,0.772,0.341,0.932c1.25,0.954,2.508,1.733,3.9,2.135
	c3.083,0.891,5.367-0.57,6.011-3.658c0.458-2.199,0.405-4.43-0.175-6.609c-0.6-2.25-1.998-3.247-4.336-3.17
	c-1.773,0.058-3.342,0.701-4.762,1.746c-0.7,0.516-1.007,0.991-1.021,2.062C239.31,360.801,239.321,361.686,239.321,362.69z"/>
<path fill="#22356A" d="M215.42,370.379c0,2.55,0,5.043,0,7.723c1.013,0,2.035-0.014,3.056,0.004
	c1.232,0.021,1.427,0.268,1.415,1.707c-0.011,1.295-0.177,1.487-1.384,1.489c-3.193,0.007-6.387-0.028-9.579,0.02
	c-1.064,0.016-1.372-0.423-1.351-1.413c0.033-1.576,0.118-1.767,1.293-1.802c0.75-0.023,1.501-0.004,2.327-0.004
	c0-7.336,0-14.599,0-22.005c-0.805,0-1.617-0.027-2.428,0.008c-0.808,0.035-1.165-0.272-1.188-1.115
	c-0.057-1.963,0.039-2.094,1.98-2.095c0.969,0,1.938-0.003,2.906,0c2.055,0.006,2.416,0.336,2.607,2.544
	c0.363-0.297,0.646-0.532,0.934-0.763c2.545-2.052,5.451-2.625,8.588-1.939c2.438,0.533,3.892,2.214,4.554,4.54
	c0.889,3.119,0.992,6.304,0.273,9.463c-1.223,5.37-6.926,7.849-11.756,5.151C216.923,371.475,216.245,370.938,215.42,370.379z
	 M215.367,362.69c0,1.184-0.024,2.369,0.016,3.551c0.011,0.322,0.132,0.772,0.341,0.932c1.25,0.954,2.508,1.733,3.9,2.135
	c3.083,0.891,5.368-0.57,6.011-3.658c0.458-2.199,0.405-4.43-0.175-6.609c-0.6-2.25-1.998-3.247-4.336-3.17
	c-1.773,0.058-3.341,0.701-4.762,1.746c-0.7,0.516-1.007,0.991-1.021,2.062C215.356,360.801,215.367,361.686,215.367,362.69z"/>
<path fill="#22356A" d="M167.318,369.232c0.822,0,1.531,0.017,2.24-0.004c0.841-0.025,1.297,0.304,1.232,1.202
	c-0.023,0.321-0.008,0.646-0.004,0.969c0.009,0.71-0.337,1.052-1.05,1.051c-3.05-0.004-6.1-0.004-9.149,0
	c-0.717,0.001-1.053-0.35-1.043-1.058c0.005-0.323-0.012-0.732-0.001-1.055c0.028-0.9,0.378-1.075,1.24-1.109
	c0.777-0.031,1.558,0.004,2.387,0.004c0-8.685,0-17.25,0-25.991c-0.798,0-1.604-0.017-2.41,0.005
	c-0.841,0.023-1.226-0.299-1.234-1.199c-0.008-0.944,0.031-1.444,0.285-1.705c0.264-0.27,0.758-0.283,1.671-0.268
	c1.185,0.02,2.368-0.006,3.553,0.001c1.871,0.012,2.278,0.416,2.28,2.265c0.003,3.911,0.001,7.823,0.001,11.734
	c0,0.347,0,0.694,0,0.846c1.637-1.022,3.226-1.665,4.934-2.106c1.37-0.354,2.932-0.32,4.345-0.08
	c2.691,0.458,4.457,2.694,4.519,5.509c0.071,3.228,0.033,6.458,0.042,9.688c0.002,0.387,0,0.774,0,1.3
	c0.904,0,1.718-0.014,2.529,0.003c1.099,0.024,1.295,0.279,1.293,1.6c-0.001,1.341-0.193,1.599-1.276,1.61
	c-1.508,0.015-3.015,0.009-4.521,0.002c-1.599-0.007-2.043-0.433-2.051-2.046c-0.017-3.194-0.005-6.387-0.005-9.581
	c0-0.359-0.006-0.718-0.003-1.076c0.028-3.541-2.24-4.114-4.612-3.83c-1.78,0.214-3.356,0.992-4.723,2.147
	c-0.235,0.198-0.445,0.418-0.448,0.716C167.306,362.15,167.318,365.682,167.318,369.232z"/>
<path fill="#22356A" d="M200.515,369.87c-2.258,2.757-5.152,3.435-8.38,2.823c-3.093-0.586-4.877-2.661-4.971-5.475
	c-0.095-2.827,1.644-5.209,4.628-5.923c1.613-0.386,3.328-0.371,5-0.485c0.89-0.061,1.95,0,2.829,0
	c0.318-3.166-1.053-5.01-4.01-4.882c-1.507,0.065-3.016,0.52-4.483,0.939c-1.215,0.347-1.733,0.153-2.352-1.251
	c-0.394-0.896-0.184-1.36,0.964-1.873c3.08-1.378,6.267-1.755,9.514-0.717c2.786,0.89,4.253,2.977,4.271,5.888
	c0.019,2.691-0.004,5.382,0.011,8.074c0.008,1.578,0.556,2.176,2.086,2.231c0.752,0.027,1.295,0.271,1.322,1.07
	c0.032,0.9,0.282,1.928-0.92,2.37C203.756,373.496,201.474,372.375,200.515,369.87z M199.646,363.6c-0.72,0-1.292-0.038-1.856,0.007
	c-1.557,0.126-3.146,0.133-4.653,0.479c-1.466,0.336-2.169,1.513-2.111,2.849c0.053,1.203,0.851,2.128,2.272,2.501
	c2.266,0.594,4.221-0.135,5.963-1.561c0.212-0.173,0.358-0.541,0.369-0.824C199.671,365.949,199.646,364.845,199.646,363.6z"/>
<g>
	<circle fill="#E9425C" cx="405.907" cy="344.854" r="2.795"/>
</g>
<g>
	<circle fill="#E9425C" cx="417.27" cy="344.854" r="2.795"/>
</g>
<path fill="#E9425C" d="M436.566,352.586c0,0,0.746,0.109,0.746-0.848c0-0.706,0-1.945,0-1.945s0.069-0.72-0.84-0.72
	c-0.69,0-11.087,0-11.087,0s-0.878-0.001-0.879,0.752c0,0.69-0.003,1.513-0.003,1.992c0,0.91,0.96,0.77,0.96,0.77l1.321-0.033h2.092
	c-0.185,9.293-7.787,16.799-17.123,16.799s-16.938-7.506-17.122-16.799h3.483c0,0,0.746,0.109,0.746-0.848c0-0.706,0-1.945,0-1.945
	s0.069-0.72-0.84-0.72c-0.69,0-11.087,0-11.087,0s-0.878-0.001-0.879,0.752c0,0.69-0.003,1.513-0.003,1.992
	c0,0.91,0.96,0.77,0.96,0.77h3.417c0.185,11.609,9.671,21,21.323,21c11.651,0,21.14-9.391,21.323-21h2.504L436.566,352.586z"/>
<path fill="#22356A" d="M343.506,380.517c-0.409-0.066-0.48-1.026-0.271-1.366c0.199-0.324,0.745-0.215,1.118-0.231
	c0.99-0.042,1.983-0.014,3.027-0.014c0-8.165,0-16.236,0-24.423c-1.126,0-2.239-0.027-3.351,0.011
	c-0.595,0.02-0.852-0.172-0.859-0.785c-0.01-0.656,0.333-0.767,0.886-0.756c1.217,0.024,2.435-0.001,3.652,0.011
	c1.224,0.012,1.452,0.256,1.467,1.506c0.004,0.328,0.001,0.656,0.001,1.172c0.429-0.377,0.703-0.612,0.971-0.853
	c2.342-2.11,5.144-2.576,8.123-2.107c2.613,0.411,4.309,2.038,5.071,4.538c0.995,3.265,1.016,6.591,0.128,9.876
	c-0.884,3.272-3.311,5.048-6.718,5.184c-2.871,0.115-5.311-0.815-7.412-3.02c0,3.276,0,6.393,0,9.648
	c1.173,0,2.347-0.004,3.52,0.001c1.124,0.005,1.182,0.131,1.182,0.997c0,0.329-0.11,0.596-0.346,0.596
	C350.261,380.5,346.94,380.517,343.506,380.517z M349.253,362.351c0,1.466-0.026,2.932,0.018,4.397
	c0.011,0.362,0.15,0.812,0.394,1.06c1.191,1.214,2.573,2.138,4.229,2.639c4.067,1.231,7.335-0.637,8.101-4.743
	c0.443-2.375,0.438-4.777-0.132-7.143c-0.541-2.253-1.765-3.96-4.17-4.385c-3.285-0.58-5.98,0.66-8.219,3.012
	c-0.178,0.187-0.207,0.568-0.211,0.86C349.241,359.482,349.253,360.917,349.253,362.351z"/>
<path fill="#22356A" d="M282.504,367.283c0.677-0.677,1.866-0.254,1.769,1.171c-0.064,0.958,0.318,1.382,1.157,1.679
	c2.021,0.715,4.071,0.862,6.161,0.449c1.626-0.321,2.706-1.448,2.86-2.914c0.186-1.774-0.436-2.911-2.192-3.553
	c-1.542-0.563-3.158-0.921-4.734-1.395c-0.651-0.196-1.303-0.419-1.923-0.699c-2.218-0.999-3.144-2.644-2.961-5.181
	c0.136-1.888,1.388-3.283,3.604-3.892c2.268-0.623,4.564-0.623,6.826,0.016c2.286,0.647,3.239,2.331,2.633,4.603
	c-0.062,0.232-0.545,0.504-0.818,0.489c-0.309-0.017-0.813-0.113-0.87-0.677c-0.061-0.607,0.019-1.107-0.093-1.712
	c-0.064-0.348-0.334-0.813-0.633-0.94c-2.052-0.869-4.192-0.905-6.321-0.369c-1.521,0.383-2.347,1.388-2.463,2.706
	c-0.147,1.665,0.469,2.925,1.983,3.553c1.342,0.557,2.771,0.901,4.158,1.344c0.945,0.302,1.919,0.542,2.825,0.936
	c2.183,0.95,2.993,2.375,2.858,4.822c-0.108,1.967-1.309,3.537-3.371,4.119c-2.669,0.753-5.361,0.665-8.011-0.171
	c-1.146-0.361-1.992-1.098-2.495-2.205C282.25,368.806,282.046,367.809,282.504,367.283z"/>
<path fill="#22356A" d="M367.507,367.283c0.677-0.677,1.865-0.254,1.769,1.171c-0.064,0.958,0.318,1.382,1.157,1.679
	c2.021,0.715,4.071,0.862,6.161,0.449c1.626-0.321,2.706-1.448,2.859-2.914c0.187-1.774-0.435-2.911-2.191-3.553
	c-1.542-0.563-3.158-0.921-4.734-1.395c-0.651-0.196-1.303-0.419-1.923-0.699c-2.218-0.999-3.144-2.644-2.961-5.181
	c0.136-1.888,1.388-3.283,3.603-3.892c2.269-0.623,4.565-0.623,6.827,0.016c2.286,0.647,3.239,2.331,2.632,4.603
	c-0.062,0.232-0.545,0.504-0.817,0.489c-0.31-0.017-0.813-0.113-0.87-0.677c-0.062-0.607,0.018-1.107-0.093-1.712
	c-0.064-0.348-0.334-0.813-0.633-0.94c-2.052-0.869-4.192-0.905-6.32-0.369c-1.521,0.383-2.347,1.388-2.463,2.706
	c-0.147,1.665,0.469,2.925,1.983,3.553c1.342,0.557,2.771,0.901,4.158,1.344c0.945,0.302,1.919,0.542,2.825,0.936
	c2.183,0.95,2.993,2.375,2.858,4.822c-0.108,1.967-1.309,3.537-3.371,4.119c-2.669,0.753-5.361,0.665-8.012-0.171
	c-1.145-0.361-1.991-1.098-2.494-2.205C367.253,368.806,367.049,367.809,367.507,367.283z"/>
<path fill="#22356A" d="M304.706,370.368c1.09,0,2.245,0.012,3.329-0.005c0.507-0.008,0.834,0.086,0.831,0.708
	c-0.002,0.587-0.184,0.843-0.809,0.838c-2.871-0.021-5.742-0.023-8.613,0.002c-0.608,0.005-0.83-0.215-0.848-0.808
	c-0.021-0.684,0.367-0.748,0.896-0.74c1.085,0.017,2.171,0.005,3.312,0.005c0-9.485,0-18.888,0-28.387
	c-1.156,0-2.271-0.01-3.387,0.005c-0.517,0.007-0.833-0.122-0.819-0.728c0.013-0.58,0.216-0.848,0.836-0.831
	c1.216,0.032,2.434,0,3.651,0.012c1.242,0.012,1.591,0.368,1.593,1.648c0.007,4.026,0.002,8.051,0.003,12.077
	c0,0.335,0,0.669,0,1.19c0.355-0.259,0.572-0.405,0.774-0.567c2.58-2.052,5.49-2.709,8.692-1.987
	c2.41,0.543,3.835,2.214,3.885,4.709c0.077,3.868,0.042,7.738,0.055,11.607c0.001,0.371,0,0.742,0,1.253
	c1.16,0,2.271,0.013,3.381-0.005c0.536-0.009,0.897,0.066,0.888,0.747c-0.009,0.624-0.262,0.811-0.85,0.798
	c-1.279-0.028-2.56,0.001-3.838-0.012c-1.004-0.011-1.315-0.33-1.317-1.363c-0.007-3.838,0.005-7.677-0.011-11.515
	c-0.003-0.651-0.06-1.311-0.182-1.95c-0.317-1.655-1.548-2.689-3.418-2.95c-3.048-0.426-5.544,0.751-7.762,2.697
	c-0.177,0.156-0.283,0.486-0.284,0.736C304.679,361.671,304.679,369.652,304.706,370.368z"/>
<path fill="#22356A" d="M341.454,362.832c-0.101,1.347-0.324,2.718-0.738,4.17c-0.914,3.212-3.268,5.065-6.607,5.242
	c-1.359,0.072-2.764,0.038-4.092-0.228c-2.736-0.55-4.53-2.289-5.303-4.963c-0.902-3.122-0.929-6.277,0.048-9.395
	c0.95-3.036,3.123-4.704,6.217-5c1.589-0.152,3.271-0.099,4.82,0.259c3.115,0.721,4.662,3.036,5.242,6.039
	C341.267,360.113,341.467,361.048,341.454,362.832z M325.865,361.612c-0.085,1.213,0.114,2.531,0.232,3.457
	c0.41,3.223,2.093,5.121,5.081,5.618c0.912,0.152,1.876,0.153,2.798,0.053c2.571-0.279,4.321-1.637,5.05-4.171
	c0.768-2.665,0.789-5.362,0.106-8.034c-0.505-1.974-1.648-3.489-3.695-4.112c-1.805-0.55-3.624-0.535-5.429,0.015
	c-1.488,0.453-2.648,1.397-3.148,2.84C326.309,358.872,326.119,359.75,325.865,361.612z"/>
</svg>
